<?xml version="1.0" encoding="utf-8"?>
<!-- Generator: Adobe Illustrator 16.0.3, SVG Export Plug-In . SVG Version: 6.00 Build 0)  -->
<!DOCTYPE svg PUBLIC "-//W3C//DTD SVG 1.1//EN" "http://www.w3.org/Graphics/SVG/1.1/DTD/svg11.dtd">
<svg version="1.1" id="Ebene_1" xmlns="http://www.w3.org/2000/svg" xmlns:xlink="http://www.w3.org/1999/xlink" x="0px" y="0px"
	 width="200px" height="300px" viewBox="0 0 200 300" enable-background="new 0 0 200 300" xml:space="preserve">
<g id="Ebene_2">
	<g>
		<g>
			<line fill="none" stroke="#000000" stroke-width="2" stroke-miterlimit="10" x1="100" y1="241" x2="100" y2="249"/>
			<g>
				<polygon points="97.095,247 99.998,257.841 102.905,247 				"/>
			</g>
		</g>
	</g>
	<rect x="64.5" y="206.5" stroke="#000000" stroke-miterlimit="10" width="70" height="34"/>
	<text transform="matrix(1 0 0 1 84.1606 229.9014)" fill="#F2F2F2" font-family="Arial" font-size="24">C2</text>
</g>
<g id="Ebene_3">
	<rect x="64.5" y="155.5" stroke="#000000" stroke-miterlimit="10" width="70" height="34"/>
	<text transform="matrix(1 0 0 1 82.8306 178.9014)" fill="#F2F2F2" font-family="Arial" font-size="24">M2</text>
	<g>
		<g>
			<line fill="none" stroke="#000000" stroke-width="2" stroke-miterlimit="10" x1="100" y1="189" x2="100" y2="197"/>
			<g>
				<polygon points="97.095,195 99.998,205.841 102.905,195 				"/>
			</g>
		</g>
	</g>
</g>
<g id="Ebene_4">
	<rect x="64.5" y="104.5" stroke="#000000" stroke-miterlimit="10" width="70" height="34"/>
	<g>
		<g>
			<line fill="none" stroke="#000000" stroke-width="2" stroke-miterlimit="10" x1="100" y1="139" x2="100" y2="147"/>
			<g>
				<polygon points="97.095,145 99.998,155.841 102.905,145 				"/>
			</g>
		</g>
	</g>
	<text transform="matrix(1 0 0 1 84.1606 127.9014)" fill="#F2F2F2" font-family="Arial" font-size="24">C1</text>
</g>
<g id="Ebene_5">
	<rect x="64.5" y="52.5" stroke="#000000" stroke-miterlimit="10" width="70" height="34"/>
	<text transform="matrix(1 0 0 1 82.8306 75.9014)" fill="#F2F2F2" font-family="Arial" font-size="24">M1</text>
	<text transform="matrix(1 0 0 1 50.166 31)" font-family="Arial" font-size="24">FB</text>
	<line fill="none" stroke="#000000" stroke-width="2" stroke-miterlimit="10" x1="64" y1="70" x2="33" y2="70"/>
	<line fill="none" stroke="#000000" stroke-width="2" stroke-miterlimit="10" x1="33" y1="71" x2="33" y2="32"/>
	<line fill="none" stroke="#000000" stroke-width="2" stroke-miterlimit="10" x1="32" y1="33" x2="99" y2="33"/>
	<g>
		<g>
			<line fill="none" stroke="#000000" stroke-width="2" stroke-miterlimit="10" x1="100" y1="32" x2="100" y2="43"/>
			<g>
				<polygon points="97.095,41 99.998,51.841 102.905,41 				"/>
			</g>
		</g>
	</g>
	<g>
		<g>
			<line fill="none" stroke="#000000" stroke-width="2" stroke-miterlimit="10" x1="100" y1="87" x2="100" y2="95"/>
			<g>
				<polygon points="97.095,93 99.998,103.841 102.905,93 				"/>
			</g>
		</g>
	</g>
</g>
</svg>
