<?xml version="1.0" encoding="utf-8"?>
<!-- Generator: Adobe Illustrator 16.0.3, SVG Export Plug-In . SVG Version: 6.00 Build 0)  -->
<!DOCTYPE svg PUBLIC "-//W3C//DTD SVG 1.1//EN" "http://www.w3.org/Graphics/SVG/1.1/DTD/svg11.dtd">
<svg version="1.1" id="Ebene_1" xmlns="http://www.w3.org/2000/svg" xmlns:xlink="http://www.w3.org/1999/xlink" x="0px" y="0px"
	 width="200px" height="300px" viewBox="0 0 200 300" enable-background="new 0 0 200 300" xml:space="preserve">
<g id="Ebene_2">
	<g>
		<g>
			<line fill="none" stroke="#000000" stroke-width="2" stroke-miterlimit="10" x1="114" y1="247" x2="114" y2="255"/>
			<g>
				<polygon points="111.179,253 114.082,263.841 116.989,253 				"/>
			</g>
		</g>
	</g>
	<rect x="79.5" y="212.5" stroke="#000000" stroke-miterlimit="10" width="70" height="34"/>
	<text transform="matrix(1 0 0 1 99.1606 235.9014)" fill="#F2F2F2" font-family="Arial" font-size="24">C2</text>
</g>
<g id="Ebene_3">
	<rect x="79.5" y="161.5" stroke="#000000" stroke-miterlimit="10" width="70" height="34"/>
	<text transform="matrix(1 0 0 1 97.8301 184.9014)" fill="#F2F2F2" font-family="Arial" font-size="24">M2</text>
	<g>
		<g>
			<line fill="none" stroke="#000000" stroke-width="2" stroke-miterlimit="10" x1="114" y1="195" x2="114" y2="203"/>
			<g>
				<polygon points="111.179,201 114.082,211.841 116.989,201 				"/>
			</g>
		</g>
	</g>
</g>
<g id="Ebene_4">
	<rect x="116.5" y="52.5" stroke="#000000" stroke-miterlimit="10" width="70" height="34"/>
	<text transform="matrix(1 0 0 1 136.1602 75.9014)" fill="#F2F2F2" font-family="Arial" font-size="24">C1</text>
</g>
<g id="Ebene_5">
	<rect x="41.5" y="52.5" stroke="#000000" stroke-miterlimit="10" width="70" height="34"/>
	<text transform="matrix(1 0 0 1 59.8301 75.9014)" fill="#F2F2F2" font-family="Arial" font-size="24">M1</text>
	<text transform="matrix(1 0 0 1 27.166 31)" font-family="Arial" font-size="24">FB</text>
	<line fill="none" stroke="#000000" stroke-width="2" stroke-miterlimit="10" x1="41" y1="70" x2="10" y2="70"/>
	<line fill="none" stroke="#000000" stroke-width="2" stroke-miterlimit="10" x1="10" y1="71" x2="10" y2="32"/>
	<line fill="none" stroke="#000000" stroke-width="2" stroke-miterlimit="10" x1="9" y1="33" x2="76" y2="33"/>
	<g>
		<g>
			<line fill="none" stroke="#000000" stroke-width="2" stroke-miterlimit="10" x1="77" y1="32" x2="77" y2="43"/>
			<g>
				<polygon points="74.095,41 76.998,51.841 79.905,41 				"/>
			</g>
		</g>
	</g>
</g>
<g id="Ebene_6">
	<g>
		<g>
			<line fill="none" stroke="#000000" stroke-width="2" stroke-miterlimit="10" x1="114" y1="112" x2="114" y2="153"/>
			<g>
				<polygon points="111.179,151 114.082,161.841 116.989,151 				"/>
			</g>
		</g>
	</g>
	<ellipse fill="none" stroke="#000000" stroke-width="2" stroke-miterlimit="10" cx="114.083" cy="104.917" rx="7.583" ry="7.673"/>
	<g>
		<g>
			<line fill="none" stroke="#000000" stroke-width="2" stroke-miterlimit="10" x1="151" y1="105" x2="131" y2="105"/>
			<g>
				<polygon points="133,102.095 122.159,104.998 133,107.905 				"/>
			</g>
		</g>
	</g>
	<line fill="none" stroke="#000000" stroke-width="2" stroke-miterlimit="10" x1="151" y1="106" x2="151" y2="87"/>
	<line fill="none" stroke="#000000" stroke-width="2" stroke-miterlimit="10" x1="76" y1="106" x2="76" y2="87"/>
	<text transform="matrix(0.9884 0 0 1 107.0752 113.394)" font-family="Arial" font-size="24.2819">+</text>
	<g>
		<g>
			<line fill="none" stroke="#000000" stroke-width="2" stroke-miterlimit="10" x1="75" y1="105" x2="98" y2="105"/>
			<g>
				<polygon points="96,107.905 106.841,105.002 96,102.095 				"/>
			</g>
		</g>
	</g>
</g>
</svg>
