<?xml version="1.0" encoding="utf-8"?>
<!-- Generator: Adobe Illustrator 16.0.3, SVG Export Plug-In . SVG Version: 6.00 Build 0)  -->
<!DOCTYPE svg PUBLIC "-//W3C//DTD SVG 1.1//EN" "http://www.w3.org/Graphics/SVG/1.1/DTD/svg11.dtd">
<svg version="1.1" id="Ebene_1" xmlns="http://www.w3.org/2000/svg" xmlns:xlink="http://www.w3.org/1999/xlink" x="0px" y="0px"
	 width="200px" height="300px" viewBox="0 0 200 300" enable-background="new 0 0 200 300" xml:space="preserve">
<g id="Ebene_2">
	<g>
		<g>
			<line fill="none" stroke="#000000" stroke-width="2" stroke-miterlimit="10" x1="115" y1="225" x2="115" y2="245"/>
			<g>
				<polygon points="112.179,243 115.082,253.841 117.989,243 				"/>
			</g>
		</g>
	</g>
	<rect x="80.5" y="190.5" stroke="#000000" stroke-miterlimit="10" width="70" height="34"/>
	<text transform="matrix(1 0 0 1 99.521 214.168)" fill="#F2F2F2" font-family="Arial" font-size="25">C2</text>
</g>
<g id="Ebene_3">
	<rect x="116.5" y="105.5" stroke="#000000" stroke-miterlimit="10" width="70" height="34"/>
	<text transform="matrix(1 0 0 1 134.1357 129.168)" fill="#F2F2F2" font-family="Arial" font-size="25">M2</text>
</g>
<g id="Ebene_4">
	<rect x="116.5" y="52.5" stroke="#000000" stroke-miterlimit="10" width="70" height="34"/>
	<text transform="matrix(1 0 0 1 135.5215 76.168)" fill="#F2F2F2" font-family="Arial" font-size="25">C1</text>
	<g>
		<g>
			<line fill="none" stroke="#000000" stroke-width="2" stroke-miterlimit="10" x1="152" y1="87" x2="152" y2="97"/>
			<g>
				<polygon points="149.095,95 151.998,105.841 154.905,95 				"/>
			</g>
		</g>
	</g>
</g>
<g id="Ebene_5">
	<rect x="41.5" y="52.5" stroke="#000000" stroke-miterlimit="10" width="70" height="34"/>
	<text transform="matrix(1 0 0 1 59.1362 76.168)" fill="#F2F2F2" font-family="Arial" font-size="25">M1</text>
	<text transform="matrix(1 0 0 1 26.5273 31)" font-family="Arial" font-size="25">FB</text>
	<line fill="none" stroke="#000000" stroke-width="2" stroke-miterlimit="10" x1="41" y1="70" x2="10" y2="70"/>
	<line fill="none" stroke="#000000" stroke-width="2" stroke-miterlimit="10" x1="10" y1="71" x2="10" y2="32"/>
	<line fill="none" stroke="#000000" stroke-width="2" stroke-miterlimit="10" x1="9" y1="33" x2="76" y2="33"/>
	<g>
		<g>
			<line fill="none" stroke="#000000" stroke-width="2" stroke-miterlimit="10" x1="77" y1="32" x2="77" y2="43"/>
			<g>
				<polygon points="74.095,41 76.998,51.841 79.905,41 				"/>
			</g>
		</g>
	</g>
</g>
<g id="Ebene_6">
	<g>
		<g>
			<line fill="none" stroke="#000000" stroke-width="2" stroke-miterlimit="10" x1="115" y1="164" x2="115" y2="182"/>
			<g>
				<polygon points="112.179,180 115.082,190.841 117.989,180 				"/>
			</g>
		</g>
	</g>
	<circle fill="none" stroke="#000000" stroke-width="2" stroke-miterlimit="10" cx="115.083" cy="156.75" r="7.583"/>
	<g>
		<g>
			<line fill="none" stroke="#000000" stroke-width="2" stroke-miterlimit="10" x1="152" y1="157" x2="132" y2="157"/>
			<g>
				<polygon points="134,154.095 123.159,156.998 134,159.905 				"/>
			</g>
		</g>
	</g>
	<line fill="none" stroke="#000000" stroke-width="2" stroke-miterlimit="10" x1="151" y1="158" x2="151" y2="139"/>
	<line fill="none" stroke="#000000" stroke-width="2" stroke-miterlimit="10" x1="76" y1="158" x2="76" y2="87"/>
	<text transform="matrix(1 0 0 1 107.7832 165.418)" font-family="Arial" font-size="25">+</text>
	<g>
		<g>
			<line fill="none" stroke="#000000" stroke-width="2" stroke-miterlimit="10" x1="76" y1="157" x2="99" y2="157"/>
			<g>
				<polygon points="97,159.905 107.841,157.002 97,154.095 				"/>
			</g>
		</g>
	</g>
</g>
</svg>
