<?xml version="1.0" encoding="utf-8"?>
<!-- Generator: Adobe Illustrator 16.0.3, SVG Export Plug-In . SVG Version: 6.00 Build 0)  -->
<!DOCTYPE svg PUBLIC "-//W3C//DTD SVG 1.1//EN" "http://www.w3.org/Graphics/SVG/1.1/DTD/svg11.dtd">
<svg version="1.1" id="Ebene_1" xmlns="http://www.w3.org/2000/svg" xmlns:xlink="http://www.w3.org/1999/xlink" x="0px" y="0px"
	 width="200px" height="300px" viewBox="0 0 200 300" enable-background="new 0 0 200 300" xml:space="preserve">
<g id="Ebene_2">
	<rect x="116.5" y="144.5" stroke="#000000" stroke-miterlimit="10" width="70" height="34"/>
	<text transform="matrix(1 0 0 1 136.9424 169.0215)" fill="#F2F2F2" font-family="Arial" font-size="24">C2</text>
</g>
<g id="Ebene_3">
	<rect x="116.5" y="91.5" stroke="#000000" stroke-miterlimit="10" width="70" height="34"/>
	<text transform="matrix(1 0 0 1 137.4414 116.25)" fill="#F2F2F2" font-family="Arial" font-size="24">M2</text>
	<g>
		<g>
			<line fill="none" stroke="#000000" stroke-width="2" stroke-miterlimit="10" x1="151" y1="136" x2="151" y2="126"/>
			<g>
				<polygon points="153.905,134 151.002,144.841 148.095,134 				"/>
			</g>
		</g>
	</g>
</g>
<g id="Ebene_4">
	<rect x="41.5" y="144.5" stroke="#000000" stroke-miterlimit="10" width="70" height="34"/>
	<text transform="matrix(1 0 0 1 60.5981 169.0215)" fill="#F2F2F2" font-family="Arial" font-size="24">C1</text>
</g>
<g id="Ebene_5">
	<rect x="41.5" y="91.5" stroke="#000000" stroke-miterlimit="10" width="70" height="34"/>
	<text transform="matrix(1 0 0 1 60.3481 116)" fill="#F2F2F2" font-family="Arial" font-size="24">M1</text>
	<text transform="matrix(1 0 0 1 28.667 70)" font-family="Arial" font-size="24">FB</text>
	<line fill="none" stroke="#000000" stroke-width="2" stroke-miterlimit="10" x1="41" y1="109" x2="10" y2="109"/>
	<line fill="none" stroke="#000000" stroke-width="2" stroke-miterlimit="10" x1="10" y1="110" x2="10" y2="71"/>
	<line fill="none" stroke="#000000" stroke-width="2" stroke-miterlimit="10" x1="9" y1="72" x2="76" y2="72"/>
	<g>
		<g>
			<line fill="none" stroke="#000000" stroke-width="2" stroke-miterlimit="10" x1="77" y1="71" x2="77" y2="82"/>
			<g>
				<polygon points="74.095,80 76.998,90.841 79.905,80 				"/>
			</g>
		</g>
	</g>
	<g>
		<g>
			<line fill="none" stroke="#000000" stroke-width="2" stroke-miterlimit="10" x1="76" y1="125" x2="76" y2="135"/>
			<g>
				<polygon points="73.095,133 75.998,143.841 78.905,133 				"/>
			</g>
		</g>
	</g>
</g>
<g id="Ebene_6">
	<g>
		<g>
			<line fill="none" stroke="#000000" stroke-width="2" stroke-miterlimit="10" x1="115" y1="203" x2="115" y2="221"/>
			<g>
				<polygon points="112.179,219 115.082,229.841 117.989,219 				"/>
			</g>
		</g>
	</g>
	<circle fill="none" stroke="#000000" stroke-width="2" stroke-miterlimit="10" cx="115.083" cy="195.75" r="7.583"/>
	<g>
		<g>
			<line fill="none" stroke="#000000" stroke-width="2" stroke-miterlimit="10" x1="152" y1="196" x2="132" y2="196"/>
			<g>
				<polygon points="134,193.095 123.159,195.998 134,198.905 				"/>
			</g>
		</g>
	</g>
	<line fill="none" stroke="#000000" stroke-width="2" stroke-miterlimit="10" x1="151" y1="197" x2="151" y2="179"/>
	<text transform="matrix(1 0 0 1 108.0752 204.1523)" font-family="Arial" font-size="24">+</text>
	<g>
		<g>
			<line fill="none" stroke="#000000" stroke-width="2" stroke-miterlimit="10" x1="76" y1="196" x2="99" y2="196"/>
			<g>
				<polygon points="97,198.905 107.841,196.002 97,193.095 				"/>
			</g>
		</g>
	</g>
	<line fill="none" stroke="#000000" stroke-width="2" stroke-miterlimit="10" x1="76" y1="197" x2="76" y2="179"/>
</g>
</svg>
