<?xml version="1.0" encoding="utf-8"?>
<!-- Generator: Adobe Illustrator 16.0.3, SVG Export Plug-In . SVG Version: 6.00 Build 0)  -->
<!DOCTYPE svg PUBLIC "-//W3C//DTD SVG 1.1//EN" "http://www.w3.org/Graphics/SVG/1.1/DTD/svg11.dtd">
<svg version="1.1" id="Ebene_1" xmlns="http://www.w3.org/2000/svg" xmlns:xlink="http://www.w3.org/1999/xlink" x="0px" y="0px"
	 width="200px" height="300px" viewBox="0 0 200 300" enable-background="new 0 0 200 300" xml:space="preserve">
<g id="Ebene_2">
	<rect x="118.5" y="170.5" stroke="#000000" stroke-miterlimit="10" width="70" height="34"/>
	<text transform="matrix(1 0 0 1 137.9424 196.0215)" fill="#F2F2F2" font-family="Arial" font-size="24">C2</text>
</g>
<g id="Ebene_3">
	<rect x="66.5" y="117.5" stroke="#000000" stroke-miterlimit="10" width="70" height="34"/>
	<text transform="matrix(1 0 0 1 83.9419 143.25)" fill="#F2F2F2" font-family="Arial" font-size="24">M2</text>
	<g>
		<g>
			<line fill="none" stroke="#000000" stroke-width="2" stroke-miterlimit="10" x1="101" y1="205" x2="101" y2="152"/>
			<g>
				<polygon points="104.405,203 101.502,213.841 98.595,203 				"/>
			</g>
		</g>
	</g>
</g>
<g id="Ebene_4">
	<rect x="13.5" y="170.5" stroke="#000000" stroke-miterlimit="10" width="70" height="34"/>
	<text transform="matrix(1 0 0 1 32.5981 196.0215)" fill="#F2F2F2" font-family="Arial" font-size="24">C1</text>
</g>
<g id="Ebene_5">
	<rect x="13.5" y="67.5" stroke="#000000" stroke-miterlimit="10" width="70" height="34"/>
	<text transform="matrix(1 0 0 1 32.5981 92.0439)" fill="#F2F2F2" font-family="Arial" font-size="24">M1</text>
	<text transform="matrix(1 0 0 1 51.667 46.0439)" font-family="Arial" font-size="24">FB</text>
	<line fill="none" stroke="#000000" stroke-width="2" stroke-miterlimit="10" x1="99" y1="84" x2="68" y2="84"/>
	<line fill="none" stroke="#000000" stroke-width="2" stroke-miterlimit="10" x1="98" y1="85" x2="98" y2="47"/>
	<line fill="none" stroke="#000000" stroke-width="2" stroke-miterlimit="10" x1="32" y1="48" x2="99" y2="48"/>
	<g>
		<g>
			<line fill="none" stroke="#000000" stroke-width="2" stroke-miterlimit="10" x1="33" y1="47" x2="33" y2="58"/>
			<g>
				<polygon points="29.845,56 32.748,66.841 35.655,56 				"/>
			</g>
		</g>
	</g>
	<g>
		<g>
			<line fill="none" stroke="#000000" stroke-width="2" stroke-miterlimit="10" x1="48" y1="101" x2="48" y2="162"/>
			<g>
				<polygon points="45.595,160 48.498,170.841 51.405,160 				"/>
			</g>
		</g>
	</g>
</g>
<g id="Ebene_6">
	<g>
		<g>
			<line fill="none" stroke="#000000" stroke-width="2" stroke-miterlimit="10" x1="101" y1="229" x2="101" y2="247"/>
			<g>
				<polygon points="98.595,245 101.498,255.841 104.405,245 				"/>
			</g>
		</g>
	</g>
	<circle fill="none" stroke="#000000" stroke-width="2" stroke-miterlimit="10" cx="101.5" cy="221.75" r="7.584"/>
	<g>
		<g>
			<line fill="none" stroke="#000000" stroke-width="2" stroke-miterlimit="10" x1="153" y1="222" x2="118" y2="222"/>
			<g>
				<polygon points="120,219.095 109.159,221.998 120,224.905 				"/>
			</g>
		</g>
	</g>
	<line fill="none" stroke="#000000" stroke-width="2" stroke-miterlimit="10" x1="153" y1="223" x2="153" y2="205"/>
	<text transform="matrix(1 0 0 1 94.4917 230.1523)" font-family="Arial" font-size="24">+</text>
	<g>
		<g>
			<line fill="none" stroke="#000000" stroke-width="2" stroke-miterlimit="10" x1="47" y1="222" x2="85" y2="222"/>
			<g>
				<polygon points="83,224.905 93.841,222.002 83,219.095 				"/>
			</g>
		</g>
	</g>
	<line fill="none" stroke="#000000" stroke-width="2" stroke-miterlimit="10" x1="48" y1="223" x2="48" y2="205"/>
</g>
</svg>
